<?xml version="1.0" encoding="UTF-8"?>
<svg xmlns="http://www.w3.org/2000/svg" version="1.1" xmlns:xlink="http://www.w3.org/1999/xlink" viewBox="0 0 121.51 45.07">
  <!-- Generator: Adobe Illustrator 30.0.0, SVG Export Plug-In . SVG Version: 2.1.1 Build 72)  -->
  <defs>
    <style>
      .st0 {
        font-family: Calibri, Calibri;
      }

      .st0, .st1 {
        font-size: 10.98px;
      }

      .st2 {
        fill: none;
      }

      .st3 {
        clip-path: url(#clippath-1);
      }

      .st1 {
        font-family: Nunito-Regular, Nunito;
      }

      .st4 {
        fill: #3f3e3e;
      }

      .st5 {
        display: none;
      }

      .st6 {
        fill: #3d853e;
      }

      .st7 {
        clip-path: url(#clippath-2);
      }

      .st8 {
        clip-path: url(#clippath);
      }

      .st9 {
        fill: #f1eeeb;
      }
    </style>
    <clipPath id="clippath">
      <rect class="st2" x="522.56" y="257.89" width="455.11" height="24.18"/>
    </clipPath>
    <clipPath id="clippath-1">
      <rect class="st2" x="522.56" y="257.89" width="455.11" height="24.18"/>
    </clipPath>
    <clipPath id="clippath-2">
      <rect class="st2" x="522.56" y="257.89" width="455.11" height="24.18"/>
    </clipPath>
  </defs>
  <g id="Blk-slogan" class="st5">
    <path class="st4" d="M1.93,28.75c-.43-.41-.64-.99-.64-1.74V4.4c0-.75.21-1.33.64-1.74s1.01-.62,1.76-.62h7.68c4.47,0,7.94,1.2,10.41,3.59,2.47,2.39,3.7,5.74,3.7,10.06s-1.23,7.71-3.7,10.1c-2.47,2.39-5.94,3.59-10.41,3.59H3.69c-.75,0-1.34-.21-1.76-.62h0ZM11.06,25.3c6.28,0,9.42-3.2,9.42-9.62s-3.14-9.58-9.42-9.58h-4.77v19.19h4.77Z"/>
    <path class="st4" d="M30.41,5.86c-.52-.48-.78-1.1-.78-1.88s.26-1.4.78-1.86c.52-.47,1.21-.7,2.09-.7s1.54.23,2.07.7c.53.47.79,1.09.79,1.86s-.26,1.4-.78,1.88c-.52.48-1.21.72-2.09.72s-1.58-.24-2.09-.72h0ZM30.77,29c-.45-.4-.68-.98-.68-1.73v-14.96c0-.75.23-1.32.68-1.71.45-.39,1.03-.58,1.73-.58s1.28.19,1.74.58.7.96.7,1.71v14.96c0,.75-.23,1.32-.7,1.73s-1.05.6-1.74.6-1.27-.2-1.73-.6Z"/>
    <path class="st4" d="M57.74,10.65c.44.41.66.97.66,1.67v15.31c0,2.97-.83,5.22-2.48,6.75-1.65,1.53-4.1,2.29-7.33,2.29-2.82,0-5.17-.53-7.06-1.59-.96-.57-1.43-1.25-1.43-2.05,0-.57.14-1.02.41-1.36.27-.34.63-.5,1.07-.5.23,0,.52.06.85.17.34.12.68.25,1.05.41.93.39,1.76.68,2.5.89.74.21,1.58.31,2.54.31,3.39,0,5.08-1.65,5.08-4.96v-2.48c-.57,1.06-1.4,1.88-2.48,2.46s-2.33.87-3.72.87c-1.65,0-3.12-.39-4.4-1.18-1.28-.79-2.28-1.89-3-3.31-.72-1.42-1.09-3.06-1.09-4.92s.36-3.51,1.07-4.94c.71-1.43,1.71-2.55,3-3.33,1.29-.79,2.77-1.18,4.42-1.18,1.4,0,2.64.29,3.72.87,1.09.58,1.91,1.4,2.48,2.46v-1.01c0-.67.22-1.21.66-1.63.44-.41,1.02-.62,1.74-.62s1.3.21,1.74.62h0ZM52.29,23.56c.87-1.01,1.3-2.39,1.3-4.15s-.43-3.18-1.3-4.19c-.87-1.01-2.07-1.51-3.63-1.51s-2.73.5-3.61,1.51c-.88,1.01-1.32,2.4-1.32,4.19s.44,3.14,1.32,4.15c.88,1.01,2.08,1.51,3.61,1.51s2.76-.5,3.63-1.51Z"/>
    <path class="st6" d="M63.72,6.48c-.52-.48-.78-1.1-.78-1.88s.26-1.4.78-1.86c.52-.47,1.21-.7,2.09-.7s1.54.23,2.07.7c.53.47.79,1.09.79,1.86s-.26,1.4-.78,1.88c-.52.48-1.21.72-2.09.72s-1.58-.24-2.09-.72h0ZM64.25,30.42c-.98-.95-.89-2.1-.95-3.5-.02-.42-.03-.82-.05-1.25-.11-3.63-.43-9.67-.47-12.99.11-1.14,1.01-2.05,2-2.47.82-.33,1.76-.23,2.52.25.68.43,1.33,1.13,1.49,1.95.04.2.05.4.05.62-.1,3-.44,11.07-.56,14.31-.04.84,0,1.61-.41,2.38-.7,1.39-2.51,1.79-3.61.72h0s0,0,0,0Z"/>
    <path class="st4" d="M85.03,27.74c0,.62-.25,1.09-.76,1.42-.5.32-1.22.46-2.15.41l-1.05-.08c-4.34-.31-6.51-2.64-6.51-6.98v-8.45h-1.94c-.7,0-1.23-.16-1.61-.47s-.56-.76-.56-1.36.19-1.05.56-1.36.91-.47,1.61-.47h1.94v-3.57c0-.7.22-1.25.66-1.67s1.03-.62,1.78-.62,1.3.21,1.74.62c.44.41.66.97.66,1.67v3.57h3.3c.7,0,1.23.16,1.61.47.37.31.56.76.56,1.36s-.19,1.05-.56,1.36-.91.47-1.61.47h-3.3v8.8c0,1.91.88,2.93,2.64,3.06l1.05.08c1.29.08,1.94.66,1.94,1.74h0Z"/>
    <path class="st4" d="M103.62,24.68c.27.34.41.79.41,1.36,0,.8-.48,1.47-1.43,2.02-.88.49-1.87.89-2.99,1.18-1.11.3-2.17.45-3.18.45-3.05,0-5.47-.88-7.25-2.64-1.78-1.76-2.68-4.16-2.68-7.21,0-1.94.39-3.66,1.16-5.16.78-1.5,1.87-2.66,3.28-3.49,1.41-.83,3-1.24,4.79-1.24s3.19.37,4.46,1.12c1.27.75,2.25,1.81,2.95,3.18.7,1.37,1.05,2.99,1.05,4.85,0,1.11-.49,1.67-1.47,1.67h-11.44c.16,1.78.66,3.1,1.51,3.94.85.84,2.09,1.26,3.72,1.26.83,0,1.56-.1,2.19-.31.63-.21,1.35-.49,2.15-.85.78-.41,1.34-.62,1.71-.62.44,0,.79.17,1.07.5h0ZM92.69,14.6c-.79.83-1.26,2.02-1.42,3.57h8.76c-.05-1.58-.44-2.77-1.16-3.59-.72-.81-1.73-1.22-3.02-1.22s-2.37.41-3.16,1.24Z"/>
    <path class="st4" d="M120.31,10.45c.39.34.58.84.58,1.51s-.17,1.21-.5,1.55c-.34.34-.94.56-1.82.66l-1.16.12c-1.53.16-2.64.67-3.35,1.55s-1.07,1.98-1.07,3.3v8.14c0,.75-.23,1.32-.7,1.73-.47.4-1.05.6-1.74.6s-1.27-.2-1.73-.6c-.45-.4-.68-.98-.68-1.73v-15c0-.72.23-1.28.68-1.67.45-.39,1.01-.58,1.69-.58s1.21.19,1.63.56c.41.37.62.91.62,1.61v1.55c.49-1.14,1.22-2.02,2.19-2.64.97-.62,2.05-.97,3.24-1.05l.54-.04c.67-.05,1.2.09,1.59.43h0Z"/>
    <g>
      <path class="st6" d="M64.15,42.43c-.36-.11-.64-.26-.87-.44-.12-.09-.18-.22-.18-.38,0-.11.03-.21.1-.29.07-.08.14-.12.23-.12.09,0,.2.04.32.11.22.17.46.29.7.36s.51.11.81.11c.38,0,.67-.07.87-.2.2-.14.3-.33.3-.6,0-.2-.09-.36-.28-.47-.19-.11-.5-.21-.94-.32-.46-.1-.83-.22-1.11-.35s-.5-.3-.65-.51c-.15-.21-.22-.47-.22-.79s.09-.63.27-.89c.18-.26.43-.46.76-.61s.69-.22,1.09-.22c.74,0,1.35.2,1.81.61.07.06.11.12.14.17.03.06.04.13.04.21,0,.11-.03.21-.1.29-.07.08-.14.12-.23.12-.05,0-.1,0-.14-.02-.04-.02-.1-.04-.17-.09-.21-.16-.42-.28-.62-.36s-.44-.12-.73-.12c-.35,0-.63.07-.84.22s-.31.35-.31.61c0,.22.09.39.27.5.18.12.49.23.92.33.46.11.84.23,1.12.36s.51.3.66.5.23.46.23.76c0,.33-.09.62-.27.87s-.43.45-.75.59c-.32.14-.7.21-1.12.21s-.78-.05-1.13-.16Z"/>
      <path class="st6" d="M71.31,38.78c.26.17.46.41.6.72.14.31.21.67.21,1.07s-.07.76-.21,1.06c-.14.3-.34.54-.6.7-.25.16-.55.25-.88.25-.27,0-.51-.06-.72-.18-.21-.12-.38-.28-.49-.49v1.63c0,.14-.04.25-.13.33s-.2.12-.35.12-.26-.04-.35-.13c-.09-.09-.14-.2-.14-.34v-4.53c0-.14.04-.26.13-.34s.2-.13.35-.13.26.04.35.13.13.2.13.34v.2c.11-.22.28-.39.49-.51.21-.12.46-.18.73-.18.33,0,.62.09.87.26ZM70.9,41.49c.17-.22.26-.52.26-.91s-.09-.72-.26-.94c-.17-.22-.41-.34-.72-.34s-.55.11-.72.33c-.17.22-.25.53-.25.93s.08.71.25.93c.17.22.41.33.72.33s.54-.11.72-.32Z"/>
      <path class="st6" d="M76.15,41.56c.05.07.08.16.08.28,0,.16-.1.3-.29.42-.18.1-.38.18-.6.24-.22.06-.44.09-.64.09-.61,0-1.1-.18-1.45-.54-.36-.36-.54-.86-.54-1.49,0-.4.08-.75.23-1.06.16-.31.37-.55.66-.72.28-.17.6-.26.96-.26s.64.08.89.23c.25.15.45.37.59.66.14.28.21.61.21,1,0,.23-.1.34-.3.34h-2.29c.03.37.13.64.3.81.17.17.42.26.75.26.17,0,.31-.02.44-.06.13-.04.27-.1.43-.18.15-.09.27-.13.34-.13.09,0,.16.03.21.1ZM73.96,39.48c-.16.17-.25.42-.28.73h1.76c-.01-.32-.09-.57-.23-.74-.15-.17-.35-.25-.61-.25s-.48.09-.63.26Z"/>
      <path class="st6" d="M77.06,42.24c-.17-.1-.25-.24-.25-.43,0-.11.03-.19.09-.26.06-.07.13-.1.21-.1.09,0,.21.04.37.13.17.08.32.14.45.18s.31.06.52.06.39-.04.51-.11c.12-.07.18-.18.18-.31,0-.09-.02-.16-.07-.22s-.14-.1-.26-.15c-.13-.05-.32-.1-.58-.16-.46-.1-.79-.23-.99-.41-.2-.18-.3-.42-.3-.73,0-.23.07-.45.2-.63.13-.19.32-.34.56-.44.24-.1.5-.16.8-.16.22,0,.43.03.63.08.2.06.38.14.54.24.17.11.25.25.25.42,0,.11-.03.2-.09.27s-.13.11-.21.11c-.06,0-.11-.01-.17-.04s-.12-.06-.21-.11c-.15-.08-.28-.14-.39-.18-.11-.04-.24-.06-.4-.06-.19,0-.34.04-.46.12-.11.08-.17.19-.17.33s.06.23.17.3c.11.07.33.14.66.21.35.07.62.16.82.26s.34.22.42.36c.09.14.13.33.13.55,0,.36-.15.65-.44.87-.29.22-.68.33-1.17.33-.57,0-1.02-.11-1.37-.34Z"/>
      <path class="st6" d="M86.49,40.13v1.96c0,.15-.04.27-.13.35-.09.09-.2.13-.35.13s-.27-.04-.36-.13c-.09-.09-.13-.2-.13-.35v-1.96c0-.28-.06-.49-.17-.62-.11-.13-.29-.2-.52-.2-.28,0-.5.09-.67.27-.17.18-.25.42-.25.73v1.78c0,.15-.04.27-.13.35s-.21.13-.36.13-.27-.04-.35-.13-.13-.2-.13-.35v-4.78c0-.14.05-.25.14-.34.09-.09.21-.13.35-.13s.26.04.35.12.13.19.13.33v1.86c.13-.21.3-.37.52-.48.22-.11.46-.16.73-.16.89,0,1.34.54,1.34,1.61Z"/>
      <path class="st6" d="M90.84,38.67c.09.09.13.2.13.34v3.1c0,.14-.05.25-.14.34s-.21.13-.35.13-.25-.04-.33-.12c-.08-.08-.12-.19-.12-.33v-.2c-.12.21-.28.38-.48.49-.2.11-.43.17-.68.17-.93,0-1.4-.54-1.4-1.61v-1.96c0-.14.04-.26.13-.34s.2-.13.35-.13.27.04.36.13.13.2.13.34v1.97c0,.28.05.48.16.62s.28.2.51.2c.27,0,.49-.09.65-.28.16-.18.24-.43.24-.73v-1.78c0-.14.04-.26.13-.34s.2-.13.35-.13.27.04.36.13Z"/>
      <path class="st6" d="M97.45,38.9c.22.25.33.66.33,1.23v1.96c0,.15-.05.27-.14.36s-.21.12-.35.12-.26-.04-.35-.12c-.09-.08-.14-.2-.14-.36v-1.96c0-.29-.05-.5-.15-.63-.1-.13-.26-.19-.46-.19-.25,0-.46.09-.61.27-.15.18-.23.42-.23.73v1.78c0,.15-.05.27-.14.36s-.21.12-.35.12-.26-.04-.35-.12-.14-.2-.14-.36v-1.96c0-.29-.05-.5-.15-.63s-.26-.19-.46-.19c-.25,0-.46.09-.6.27-.15.18-.22.42-.22.73v1.78c0,.15-.05.27-.14.36s-.21.12-.35.12-.25-.04-.35-.12c-.09-.08-.14-.2-.14-.36v-3.09c0-.15.05-.26.14-.34.09-.08.21-.12.35-.12s.24.04.33.12c.09.08.13.19.13.33v.19c.12-.21.28-.38.48-.49.2-.11.43-.17.69-.17.57,0,.95.24,1.14.73.11-.22.28-.4.51-.53.22-.13.47-.2.75-.2.41,0,.73.13.95.38Z"/>
      <path class="st6" d="M101.59,38.92c.26.27.38.68.38,1.23v1.95c0,.14-.04.26-.12.34-.08.08-.2.12-.34.12-.13,0-.24-.04-.33-.13-.09-.09-.13-.2-.13-.34v-.18c-.09.21-.23.37-.42.49-.19.12-.41.18-.66.18s-.48-.05-.69-.16c-.21-.11-.37-.25-.49-.44-.12-.19-.18-.39-.18-.62,0-.29.07-.51.21-.68.14-.17.37-.29.7-.36.32-.07.76-.11,1.33-.11h.19v-.18c0-.26-.05-.45-.16-.57-.11-.12-.29-.18-.53-.18-.15,0-.3.02-.46.07-.16.05-.34.11-.55.2-.13.07-.23.1-.3.1-.09,0-.17-.03-.23-.1s-.09-.16-.09-.27c0-.09.02-.17.07-.24s.12-.13.22-.19c.18-.1.4-.18.65-.24.25-.06.5-.09.74-.09.53,0,.92.13,1.18.4ZM100.81,41.6c.16-.18.24-.41.24-.69v-.17h-.14c-.35,0-.62.02-.81.05-.19.03-.33.09-.41.17-.08.08-.12.19-.12.33,0,.17.06.31.17.42.12.11.26.16.43.16.26,0,.47-.09.63-.27Z"/>
      <path class="st6" d="M106.19,38.92c.22.27.33.67.33,1.21v1.96c0,.15-.04.27-.13.35-.09.09-.2.13-.35.13s-.27-.04-.36-.13c-.09-.09-.13-.2-.13-.35v-1.91c0-.3-.06-.52-.17-.66-.11-.14-.29-.21-.52-.21-.28,0-.5.09-.67.27-.17.18-.25.42-.25.73v1.78c0,.15-.04.27-.13.35s-.21.13-.36.13-.27-.04-.35-.13-.13-.2-.13-.35v-3.09c0-.14.04-.25.13-.34.09-.09.21-.13.36-.13.13,0,.24.04.33.12s.13.19.13.32v.22c.13-.22.3-.39.52-.5.22-.12.46-.18.74-.18.46,0,.8.13,1.02.4Z"/>
      <path class="st6" d="M107.58,37.68c-.1-.1-.16-.23-.16-.39s.05-.29.16-.38.24-.14.42-.14.31.05.42.14c.11.1.16.22.16.38s-.05.29-.15.39c-.1.1-.24.15-.42.15s-.32-.05-.42-.15ZM107.65,42.45c-.09-.08-.14-.2-.14-.36v-3.08c0-.15.05-.27.14-.35.09-.08.21-.12.35-.12s.26.04.35.12c.09.08.14.2.14.35v3.08c0,.15-.05.27-.14.36s-.21.12-.35.12-.25-.04-.35-.12Z"/>
      <path class="st6" d="M111.85,42.19c0,.13-.05.22-.15.29-.1.07-.24.09-.43.08l-.21-.02c-.87-.06-1.31-.54-1.31-1.44v-1.74h-.39c-.14,0-.25-.03-.32-.1-.08-.06-.11-.16-.11-.28s.04-.22.11-.28c.07-.06.18-.1.32-.1h.39v-.73c0-.14.04-.26.13-.34s.21-.13.36-.13.26.04.35.13.13.2.13.34v.73h.66c.14,0,.25.03.32.1.07.06.11.16.11.28s-.04.22-.11.28c-.08.06-.18.1-.32.1h-.66v1.81c0,.39.18.6.53.63l.21.02c.26.02.39.14.39.36Z"/>
      <path class="st6" d="M115.18,38.92c.26.27.38.68.38,1.23v1.95c0,.14-.04.26-.12.34-.08.08-.2.12-.34.12-.13,0-.24-.04-.33-.13-.09-.09-.13-.2-.13-.34v-.18c-.09.21-.23.37-.42.49-.19.12-.41.18-.66.18s-.48-.05-.69-.16c-.21-.11-.37-.25-.49-.44-.12-.19-.18-.39-.18-.62,0-.29.07-.51.21-.68.14-.17.37-.29.7-.36.32-.07.76-.11,1.33-.11h.19v-.18c0-.26-.05-.45-.16-.57-.11-.12-.29-.18-.53-.18-.15,0-.3.02-.46.07-.16.05-.34.11-.55.2-.13.07-.23.1-.3.1-.09,0-.17-.03-.23-.1s-.09-.16-.09-.27c0-.09.02-.17.07-.24s.12-.13.22-.19c.18-.1.4-.18.65-.24.25-.06.5-.09.74-.09.53,0,.92.13,1.18.4ZM114.4,41.6c.16-.18.24-.41.24-.69v-.17h-.14c-.35,0-.62.02-.81.05-.19.03-.33.09-.41.17-.08.08-.12.19-.12.33,0,.17.06.31.17.42.12.11.26.16.43.16.26,0,.47-.09.63-.27Z"/>
      <path class="st6" d="M118.92,42.19c0,.13-.05.22-.15.29-.1.07-.24.09-.43.08l-.21-.02c-.87-.06-1.31-.54-1.31-1.44v-1.74h-.39c-.14,0-.25-.03-.32-.1-.08-.06-.11-.16-.11-.28s.04-.22.11-.28c.07-.06.18-.1.32-.1h.39v-.73c0-.14.04-.26.13-.34s.21-.13.36-.13.26.04.35.13.13.2.13.34v.73h.66c.14,0,.25.03.32.1.07.06.11.16.11.28s-.04.22-.11.28c-.08.06-.18.1-.32.1h-.66v1.81c0,.39.18.6.53.63l.21.02c.26.02.39.14.39.36Z"/>
      <path class="st6" d="M119.49,37.68c-.1-.1-.16-.23-.16-.39s.05-.29.16-.38.24-.14.42-.14.31.05.42.14c.11.1.16.22.16.38s-.05.29-.15.39c-.1.1-.24.15-.42.15s-.32-.05-.42-.15ZM119.56,42.45c-.09-.08-.14-.2-.14-.36v-3.08c0-.15.05-.27.14-.35.09-.08.21-.12.35-.12s.26.04.35.12c.09.08.14.2.14.35v3.08c0,.15-.05.27-.14.36s-.21.12-.35.12-.25-.04-.35-.12Z"/>
    </g>
  </g>
  <g id="Light-slogan" class="st5">
    <path class="st9" d="M1.93,28.75c-.43-.41-.64-.99-.64-1.74V4.4c0-.75.21-1.33.64-1.74s1.01-.62,1.76-.62h7.68c4.47,0,7.94,1.2,10.41,3.59,2.47,2.39,3.7,5.74,3.7,10.06s-1.23,7.71-3.7,10.1c-2.47,2.39-5.94,3.59-10.41,3.59H3.69c-.75,0-1.34-.21-1.76-.62h0ZM11.06,25.3c6.28,0,9.42-3.2,9.42-9.62s-3.14-9.58-9.42-9.58h-4.77v19.19h4.77Z"/>
    <path class="st9" d="M30.41,5.86c-.52-.48-.78-1.1-.78-1.88s.26-1.4.78-1.86c.52-.47,1.21-.7,2.09-.7s1.54.23,2.07.7c.53.47.79,1.09.79,1.86s-.26,1.4-.78,1.88c-.52.48-1.21.72-2.09.72s-1.58-.24-2.09-.72h0ZM30.77,29c-.45-.4-.68-.98-.68-1.73v-14.96c0-.75.23-1.32.68-1.71.45-.39,1.03-.58,1.73-.58s1.28.19,1.74.58.7.96.7,1.71v14.96c0,.75-.23,1.32-.7,1.73s-1.05.6-1.74.6-1.27-.2-1.73-.6Z"/>
    <path class="st9" d="M57.74,10.65c.44.41.66.97.66,1.67v15.31c0,2.97-.83,5.22-2.48,6.75-1.65,1.53-4.1,2.29-7.33,2.29-2.82,0-5.17-.53-7.06-1.59-.96-.57-1.43-1.25-1.43-2.05,0-.57.14-1.02.41-1.36.27-.34.63-.5,1.07-.5.23,0,.52.06.85.17.34.12.68.25,1.05.41.93.39,1.76.68,2.5.89.74.21,1.58.31,2.54.31,3.39,0,5.08-1.65,5.08-4.96v-2.48c-.57,1.06-1.4,1.88-2.48,2.46s-2.33.87-3.72.87c-1.65,0-3.12-.39-4.4-1.18-1.28-.79-2.28-1.89-3-3.31-.72-1.42-1.09-3.06-1.09-4.92s.36-3.51,1.07-4.94c.71-1.43,1.71-2.55,3-3.33,1.29-.79,2.77-1.18,4.42-1.18,1.4,0,2.64.29,3.72.87,1.09.58,1.91,1.4,2.48,2.46v-1.01c0-.67.22-1.21.66-1.63.44-.41,1.02-.62,1.74-.62s1.3.21,1.74.62h0ZM52.29,23.56c.87-1.01,1.3-2.39,1.3-4.15s-.43-3.18-1.3-4.19c-.87-1.01-2.07-1.51-3.63-1.51s-2.73.5-3.61,1.51c-.88,1.01-1.32,2.4-1.32,4.19s.44,3.14,1.32,4.15c.88,1.01,2.08,1.51,3.61,1.51s2.76-.5,3.63-1.51Z"/>
    <path class="st6" d="M63.72,6.48c-.52-.48-.78-1.1-.78-1.88s.26-1.4.78-1.86c.52-.47,1.21-.7,2.09-.7s1.54.23,2.07.7c.53.47.79,1.09.79,1.86s-.26,1.4-.78,1.88c-.52.48-1.21.72-2.09.72s-1.58-.24-2.09-.72h0ZM64.25,30.42c-.98-.95-.89-2.1-.95-3.5-.02-.42-.03-.82-.05-1.25-.11-3.63-.43-9.67-.47-12.99.11-1.14,1.01-2.05,2-2.47.82-.33,1.76-.23,2.52.25.68.43,1.33,1.13,1.49,1.95.04.2.05.4.05.62-.1,3-.44,11.07-.56,14.31-.04.84,0,1.61-.41,2.38-.7,1.39-2.51,1.79-3.61.72h0s0,0,0,0Z"/>
    <path class="st9" d="M85.03,27.74c0,.62-.25,1.09-.76,1.42-.5.32-1.22.46-2.15.41l-1.05-.08c-4.34-.31-6.51-2.64-6.51-6.98v-8.45h-1.94c-.7,0-1.23-.16-1.61-.47s-.56-.76-.56-1.36.19-1.05.56-1.36.91-.47,1.61-.47h1.94v-3.57c0-.7.22-1.25.66-1.67s1.03-.62,1.78-.62,1.3.21,1.74.62c.44.41.66.97.66,1.67v3.57h3.3c.7,0,1.23.16,1.61.47.37.31.56.76.56,1.36s-.19,1.05-.56,1.36-.91.47-1.61.47h-3.3v8.8c0,1.91.88,2.93,2.64,3.06l1.05.08c1.29.08,1.94.66,1.94,1.74h0Z"/>
    <path class="st9" d="M103.62,24.68c.27.34.41.79.41,1.36,0,.8-.48,1.47-1.43,2.02-.88.49-1.87.89-2.99,1.18-1.11.3-2.17.45-3.18.45-3.05,0-5.47-.88-7.25-2.64-1.78-1.76-2.68-4.16-2.68-7.21,0-1.94.39-3.66,1.16-5.16.78-1.5,1.87-2.66,3.28-3.49,1.41-.83,3-1.24,4.79-1.24s3.19.37,4.46,1.12c1.27.75,2.25,1.81,2.95,3.18.7,1.37,1.05,2.99,1.05,4.85,0,1.11-.49,1.67-1.47,1.67h-11.44c.16,1.78.66,3.1,1.51,3.94.85.84,2.09,1.26,3.72,1.26.83,0,1.56-.1,2.19-.31.63-.21,1.35-.49,2.15-.85.78-.41,1.34-.62,1.71-.62.44,0,.79.17,1.07.5h0ZM92.69,14.6c-.79.83-1.26,2.02-1.42,3.57h8.76c-.05-1.58-.44-2.77-1.16-3.59-.72-.81-1.73-1.22-3.02-1.22s-2.37.41-3.16,1.24Z"/>
    <path class="st9" d="M120.31,10.45c.39.34.58.84.58,1.51s-.17,1.21-.5,1.55c-.34.34-.94.56-1.82.66l-1.16.12c-1.53.16-2.64.67-3.35,1.55s-1.07,1.98-1.07,3.3v8.14c0,.75-.23,1.32-.7,1.73-.47.4-1.05.6-1.74.6s-1.27-.2-1.73-.6c-.45-.4-.68-.98-.68-1.73v-15c0-.72.23-1.28.68-1.67.45-.39,1.01-.58,1.69-.58s1.21.19,1.63.56c.41.37.62.91.62,1.61v1.55c.49-1.14,1.22-2.02,2.19-2.64.97-.62,2.05-.97,3.24-1.05l.54-.04c.67-.05,1.2.09,1.59.43h0Z"/>
    <g>
      <path class="st6" d="M64.15,42.43c-.36-.11-.64-.26-.87-.44-.12-.09-.18-.22-.18-.38,0-.11.03-.21.1-.29.07-.08.14-.12.23-.12.09,0,.2.04.32.11.22.17.46.29.7.36s.51.11.81.11c.38,0,.67-.07.87-.2.2-.14.3-.33.3-.6,0-.2-.09-.36-.28-.47-.19-.11-.5-.21-.94-.32-.46-.1-.83-.22-1.11-.35s-.5-.3-.65-.51c-.15-.21-.22-.47-.22-.79s.09-.63.27-.89c.18-.26.43-.46.76-.61s.69-.22,1.09-.22c.74,0,1.35.2,1.81.61.07.06.11.12.14.17.03.06.04.13.04.21,0,.11-.03.21-.1.29-.07.08-.14.12-.23.12-.05,0-.1,0-.14-.02-.04-.02-.1-.04-.17-.09-.21-.16-.42-.28-.62-.36s-.44-.12-.73-.12c-.35,0-.63.07-.84.22s-.31.35-.31.61c0,.22.09.39.27.5.18.12.49.23.92.33.46.11.84.23,1.12.36s.51.3.66.5.23.46.23.76c0,.33-.09.62-.27.87s-.43.45-.75.59c-.32.14-.7.21-1.12.21s-.78-.05-1.13-.16Z"/>
      <path class="st6" d="M71.31,38.78c.26.17.46.41.6.72.14.31.21.67.21,1.07s-.07.76-.21,1.06c-.14.3-.34.54-.6.7-.25.16-.55.25-.88.25-.27,0-.51-.06-.72-.18-.21-.12-.38-.28-.49-.49v1.63c0,.14-.04.25-.13.33s-.2.12-.35.12-.26-.04-.35-.13c-.09-.09-.14-.2-.14-.34v-4.53c0-.14.04-.26.13-.34s.2-.13.35-.13.26.04.35.13.13.2.13.34v.2c.11-.22.28-.39.49-.51.21-.12.46-.18.73-.18.33,0,.62.09.87.26ZM70.9,41.49c.17-.22.26-.52.26-.91s-.09-.72-.26-.94c-.17-.22-.41-.34-.72-.34s-.55.11-.72.33c-.17.22-.25.53-.25.93s.08.71.25.93c.17.22.41.33.72.33s.54-.11.72-.32Z"/>
      <path class="st6" d="M76.15,41.56c.05.07.08.16.08.28,0,.16-.1.3-.29.42-.18.1-.38.18-.6.24-.22.06-.44.09-.64.09-.61,0-1.1-.18-1.45-.54-.36-.36-.54-.86-.54-1.49,0-.4.08-.75.23-1.06.16-.31.37-.55.66-.72.28-.17.6-.26.96-.26s.64.08.89.23c.25.15.45.37.59.66.14.28.21.61.21,1,0,.23-.1.34-.3.34h-2.29c.03.37.13.64.3.81.17.17.42.26.75.26.17,0,.31-.02.44-.06.13-.04.27-.1.43-.18.15-.09.27-.13.34-.13.09,0,.16.03.21.1ZM73.96,39.48c-.16.17-.25.42-.28.73h1.76c-.01-.32-.09-.57-.23-.74-.15-.17-.35-.25-.61-.25s-.48.09-.63.26Z"/>
      <path class="st6" d="M77.06,42.24c-.17-.1-.25-.24-.25-.43,0-.11.03-.19.09-.26.06-.07.13-.1.21-.1.09,0,.21.04.37.13.17.08.32.14.45.18s.31.06.52.06.39-.04.51-.11c.12-.07.18-.18.18-.31,0-.09-.02-.16-.07-.22s-.14-.1-.26-.15c-.13-.05-.32-.1-.58-.16-.46-.1-.79-.23-.99-.41-.2-.18-.3-.42-.3-.73,0-.23.07-.45.2-.63.13-.19.32-.34.56-.44.24-.1.5-.16.8-.16.22,0,.43.03.63.08.2.06.38.14.54.24.17.11.25.25.25.42,0,.11-.03.2-.09.27s-.13.11-.21.11c-.06,0-.11-.01-.17-.04s-.12-.06-.21-.11c-.15-.08-.28-.14-.39-.18-.11-.04-.24-.06-.4-.06-.19,0-.34.04-.46.12-.11.08-.17.19-.17.33s.06.23.17.3c.11.07.33.14.66.21.35.07.62.16.82.26s.34.22.42.36c.09.14.13.33.13.55,0,.36-.15.65-.44.87-.29.22-.68.33-1.17.33-.57,0-1.02-.11-1.37-.34Z"/>
      <path class="st6" d="M86.49,40.13v1.96c0,.15-.04.27-.13.35-.09.09-.2.13-.35.13s-.27-.04-.36-.13c-.09-.09-.13-.2-.13-.35v-1.96c0-.28-.06-.49-.17-.62-.11-.13-.29-.2-.52-.2-.28,0-.5.09-.67.27-.17.18-.25.42-.25.73v1.78c0,.15-.04.27-.13.35s-.21.13-.36.13-.27-.04-.35-.13-.13-.2-.13-.35v-4.78c0-.14.05-.25.14-.34.09-.09.21-.13.35-.13s.26.04.35.12.13.19.13.33v1.86c.13-.21.3-.37.52-.48.22-.11.46-.16.73-.16.89,0,1.34.54,1.34,1.61Z"/>
      <path class="st6" d="M90.84,38.67c.09.09.13.2.13.34v3.1c0,.14-.05.25-.14.34s-.21.13-.35.13-.25-.04-.33-.12c-.08-.08-.12-.19-.12-.33v-.2c-.12.21-.28.38-.48.49-.2.11-.43.17-.68.17-.93,0-1.4-.54-1.4-1.61v-1.96c0-.14.04-.26.13-.34s.2-.13.35-.13.27.04.36.13.13.2.13.34v1.97c0,.28.05.48.16.62s.28.2.51.2c.27,0,.49-.09.65-.28.16-.18.24-.43.24-.73v-1.78c0-.14.04-.26.13-.34s.2-.13.35-.13.27.04.36.13Z"/>
      <path class="st6" d="M97.45,38.9c.22.25.33.66.33,1.23v1.96c0,.15-.05.27-.14.36s-.21.12-.35.12-.26-.04-.35-.12c-.09-.08-.14-.2-.14-.36v-1.96c0-.29-.05-.5-.15-.63-.1-.13-.26-.19-.46-.19-.25,0-.46.09-.61.27-.15.18-.23.42-.23.73v1.78c0,.15-.05.27-.14.36s-.21.12-.35.12-.26-.04-.35-.12-.14-.2-.14-.36v-1.96c0-.29-.05-.5-.15-.63s-.26-.19-.46-.19c-.25,0-.46.09-.6.27-.15.18-.22.42-.22.73v1.78c0,.15-.05.27-.14.36s-.21.12-.35.12-.25-.04-.35-.12c-.09-.08-.14-.2-.14-.36v-3.09c0-.15.05-.26.14-.34.09-.08.21-.12.35-.12s.24.04.33.12c.09.08.13.19.13.33v.19c.12-.21.28-.38.48-.49.2-.11.43-.17.69-.17.57,0,.95.24,1.14.73.11-.22.28-.4.51-.53.22-.13.47-.2.75-.2.41,0,.73.13.95.38Z"/>
      <path class="st6" d="M101.59,38.92c.26.27.38.68.38,1.23v1.95c0,.14-.04.26-.12.34-.08.08-.2.12-.34.12-.13,0-.24-.04-.33-.13-.09-.09-.13-.2-.13-.34v-.18c-.09.21-.23.37-.42.49-.19.12-.41.18-.66.18s-.48-.05-.69-.16c-.21-.11-.37-.25-.49-.44-.12-.19-.18-.39-.18-.62,0-.29.07-.51.21-.68.14-.17.37-.29.7-.36.32-.07.76-.11,1.33-.11h.19v-.18c0-.26-.05-.45-.16-.57-.11-.12-.29-.18-.53-.18-.15,0-.3.02-.46.07-.16.05-.34.11-.55.2-.13.07-.23.1-.3.1-.09,0-.17-.03-.23-.1s-.09-.16-.09-.27c0-.09.02-.17.07-.24s.12-.13.22-.19c.18-.1.4-.18.65-.24.25-.06.5-.09.74-.09.53,0,.92.13,1.18.4ZM100.81,41.6c.16-.18.24-.41.24-.69v-.17h-.14c-.35,0-.62.02-.81.05-.19.03-.33.09-.41.17-.08.08-.12.19-.12.33,0,.17.06.31.17.42.12.11.26.16.43.16.26,0,.47-.09.63-.27Z"/>
      <path class="st6" d="M106.19,38.92c.22.27.33.67.33,1.21v1.96c0,.15-.04.27-.13.35-.09.09-.2.13-.35.13s-.27-.04-.36-.13c-.09-.09-.13-.2-.13-.35v-1.91c0-.3-.06-.52-.17-.66-.11-.14-.29-.21-.52-.21-.28,0-.5.09-.67.27-.17.18-.25.42-.25.73v1.78c0,.15-.04.27-.13.35s-.21.13-.36.13-.27-.04-.35-.13-.13-.2-.13-.35v-3.09c0-.14.04-.25.13-.34.09-.09.21-.13.36-.13.13,0,.24.04.33.12s.13.19.13.32v.22c.13-.22.3-.39.52-.5.22-.12.46-.18.74-.18.46,0,.8.13,1.02.4Z"/>
      <path class="st6" d="M107.58,37.68c-.1-.1-.16-.23-.16-.39s.05-.29.16-.38.24-.14.42-.14.31.05.42.14c.11.1.16.22.16.38s-.05.29-.15.39c-.1.1-.24.15-.42.15s-.32-.05-.42-.15ZM107.65,42.45c-.09-.08-.14-.2-.14-.36v-3.08c0-.15.05-.27.14-.35.09-.08.21-.12.35-.12s.26.04.35.12c.09.08.14.2.14.35v3.08c0,.15-.05.27-.14.36s-.21.12-.35.12-.25-.04-.35-.12Z"/>
      <path class="st6" d="M111.85,42.19c0,.13-.05.22-.15.29-.1.07-.24.09-.43.08l-.21-.02c-.87-.06-1.31-.54-1.31-1.44v-1.74h-.39c-.14,0-.25-.03-.32-.1-.08-.06-.11-.16-.11-.28s.04-.22.11-.28c.07-.06.18-.1.32-.1h.39v-.73c0-.14.04-.26.13-.34s.21-.13.36-.13.26.04.35.13.13.2.13.34v.73h.66c.14,0,.25.03.32.1.07.06.11.16.11.28s-.04.22-.11.28c-.08.06-.18.1-.32.1h-.66v1.81c0,.39.18.6.53.63l.21.02c.26.02.39.14.39.36Z"/>
      <path class="st6" d="M115.18,38.92c.26.27.38.68.38,1.23v1.95c0,.14-.04.26-.12.34-.08.08-.2.12-.34.12-.13,0-.24-.04-.33-.13-.09-.09-.13-.2-.13-.34v-.18c-.09.21-.23.37-.42.49-.19.12-.41.18-.66.18s-.48-.05-.69-.16c-.21-.11-.37-.25-.49-.44-.12-.19-.18-.39-.18-.62,0-.29.07-.51.21-.68.14-.17.37-.29.7-.36.32-.07.76-.11,1.33-.11h.19v-.18c0-.26-.05-.45-.16-.57-.11-.12-.29-.18-.53-.18-.15,0-.3.02-.46.07-.16.05-.34.11-.55.2-.13.07-.23.1-.3.1-.09,0-.17-.03-.23-.1s-.09-.16-.09-.27c0-.09.02-.17.07-.24s.12-.13.22-.19c.18-.1.4-.18.65-.24.25-.06.5-.09.74-.09.53,0,.92.13,1.18.4ZM114.4,41.6c.16-.18.24-.41.24-.69v-.17h-.14c-.35,0-.62.02-.81.05-.19.03-.33.09-.41.17-.08.08-.12.19-.12.33,0,.17.06.31.17.42.12.11.26.16.43.16.26,0,.47-.09.63-.27Z"/>
      <path class="st6" d="M118.92,42.19c0,.13-.05.22-.15.29-.1.07-.24.09-.43.08l-.21-.02c-.87-.06-1.31-.54-1.31-1.44v-1.74h-.39c-.14,0-.25-.03-.32-.1-.08-.06-.11-.16-.11-.28s.04-.22.11-.28c.07-.06.18-.1.32-.1h.39v-.73c0-.14.04-.26.13-.34s.21-.13.36-.13.26.04.35.13.13.2.13.34v.73h.66c.14,0,.25.03.32.1.07.06.11.16.11.28s-.04.22-.11.28c-.08.06-.18.1-.32.1h-.66v1.81c0,.39.18.6.53.63l.21.02c.26.02.39.14.39.36Z"/>
      <path class="st6" d="M119.49,37.68c-.1-.1-.16-.23-.16-.39s.05-.29.16-.38.24-.14.42-.14.31.05.42.14c.11.1.16.22.16.38s-.05.29-.15.39c-.1.1-.24.15-.42.15s-.32-.05-.42-.15ZM119.56,42.45c-.09-.08-.14-.2-.14-.36v-3.08c0-.15.05-.27.14-.35.09-.08.21-.12.35-.12s.26.04.35.12c.09.08.14.2.14.35v3.08c0,.15-.05.27-.14.36s-.21.12-.35.12-.25-.04-.35-.12Z"/>
    </g>
  </g>
  <g id="Blk" class="st5">
    <path class="st4" d="M1.59,32.25c-.43-.41-.64-.99-.64-1.74V7.9c0-.75.21-1.33.64-1.74s1.01-.62,1.76-.62h7.68c4.47,0,7.94,1.2,10.41,3.59,2.47,2.39,3.7,5.74,3.7,10.06s-1.23,7.71-3.7,10.1c-2.47,2.39-5.94,3.59-10.41,3.59H3.36c-.75,0-1.34-.21-1.76-.62h0ZM10.72,28.8c6.28,0,9.42-3.2,9.42-9.62s-3.14-9.58-9.42-9.58h-4.77v19.19h4.77Z"/>
    <path class="st4" d="M30.07,9.36c-.52-.48-.78-1.1-.78-1.88s.26-1.4.78-1.86c.52-.47,1.21-.7,2.09-.7s1.54.23,2.07.7c.53.47.79,1.09.79,1.86s-.26,1.4-.78,1.88c-.52.48-1.21.72-2.09.72s-1.58-.24-2.09-.72h0ZM30.44,32.5c-.45-.4-.68-.98-.68-1.73v-14.96c0-.75.23-1.32.68-1.71.45-.39,1.03-.58,1.73-.58s1.28.19,1.74.58.7.96.7,1.71v14.96c0,.75-.23,1.32-.7,1.73s-1.05.6-1.74.6-1.27-.2-1.73-.6Z"/>
    <path class="st4" d="M57.4,14.14c.44.41.66.97.66,1.67v15.31c0,2.97-.83,5.22-2.48,6.75-1.65,1.53-4.1,2.29-7.33,2.29-2.82,0-5.17-.53-7.06-1.59-.96-.57-1.43-1.25-1.43-2.05,0-.57.14-1.02.41-1.36.27-.34.63-.5,1.07-.5.23,0,.52.06.85.17.34.12.68.25,1.05.41.93.39,1.76.68,2.5.89.74.21,1.58.31,2.54.31,3.39,0,5.08-1.65,5.08-4.96v-2.48c-.57,1.06-1.4,1.88-2.48,2.46s-2.33.87-3.72.87c-1.65,0-3.12-.39-4.4-1.18-1.28-.79-2.28-1.89-3-3.31-.72-1.42-1.09-3.06-1.09-4.92s.36-3.51,1.07-4.94c.71-1.43,1.71-2.55,3-3.33,1.29-.79,2.77-1.18,4.42-1.18,1.4,0,2.64.29,3.72.87,1.09.58,1.91,1.4,2.48,2.46v-1.01c0-.67.22-1.21.66-1.63.44-.41,1.02-.62,1.74-.62s1.3.21,1.74.62h0ZM51.95,27.05c.87-1.01,1.3-2.39,1.3-4.15s-.43-3.18-1.3-4.19c-.87-1.01-2.07-1.51-3.63-1.51s-2.73.5-3.61,1.51c-.88,1.01-1.32,2.4-1.32,4.19s.44,3.14,1.32,4.15c.88,1.01,2.08,1.51,3.61,1.51s2.76-.5,3.63-1.51Z"/>
    <path class="st6" d="M63.39,9.98c-.52-.48-.78-1.1-.78-1.88s.26-1.4.78-1.86c.52-.47,1.21-.7,2.09-.7s1.54.23,2.07.7c.53.47.79,1.09.79,1.86s-.26,1.4-.78,1.88c-.52.48-1.21.72-2.09.72s-1.58-.24-2.09-.72h0ZM63.92,33.92c-.98-.95-.89-2.1-.95-3.5-.02-.42-.03-.82-.05-1.25-.11-3.63-.43-9.67-.47-12.99.11-1.14,1.01-2.05,2-2.47.82-.33,1.76-.23,2.52.25.68.43,1.33,1.13,1.49,1.95.04.2.05.4.05.62-.1,3-.44,11.07-.56,14.31-.04.84,0,1.61-.41,2.38-.7,1.39-2.51,1.79-3.61.72h0s0,0,0,0Z"/>
    <path class="st4" d="M84.69,31.24c0,.62-.25,1.09-.76,1.42-.5.32-1.22.46-2.15.41l-1.05-.08c-4.34-.31-6.51-2.64-6.51-6.98v-8.45h-1.94c-.7,0-1.23-.16-1.61-.47s-.56-.76-.56-1.36.19-1.05.56-1.36.91-.47,1.61-.47h1.94v-3.57c0-.7.22-1.25.66-1.67s1.03-.62,1.78-.62,1.3.21,1.74.62c.44.41.66.97.66,1.67v3.57h3.3c.7,0,1.23.16,1.61.47.37.31.56.76.56,1.36s-.19,1.05-.56,1.36-.91.47-1.61.47h-3.3v8.8c0,1.91.88,2.93,2.64,3.06l1.05.08c1.29.08,1.94.66,1.94,1.74h0Z"/>
    <path class="st4" d="M103.28,28.18c.27.34.41.79.41,1.36,0,.8-.48,1.47-1.43,2.02-.88.49-1.87.89-2.99,1.18-1.11.3-2.17.45-3.18.45-3.05,0-5.47-.88-7.25-2.64-1.78-1.76-2.68-4.16-2.68-7.21,0-1.94.39-3.66,1.16-5.16.78-1.5,1.87-2.66,3.28-3.49,1.41-.83,3-1.24,4.79-1.24s3.19.37,4.46,1.12c1.27.75,2.25,1.81,2.95,3.18.7,1.37,1.05,2.99,1.05,4.85,0,1.11-.49,1.67-1.47,1.67h-11.44c.16,1.78.66,3.1,1.51,3.94.85.84,2.09,1.26,3.72,1.26.83,0,1.56-.1,2.19-.31.63-.21,1.35-.49,2.15-.85.78-.41,1.34-.62,1.71-.62.44,0,.79.17,1.07.5h0ZM92.35,18.1c-.79.83-1.26,2.02-1.42,3.57h8.76c-.05-1.58-.44-2.77-1.16-3.59-.72-.81-1.73-1.22-3.02-1.22s-2.37.41-3.16,1.24Z"/>
    <path class="st4" d="M119.97,13.95c.39.34.58.84.58,1.51s-.17,1.21-.5,1.55c-.34.34-.94.56-1.82.66l-1.16.12c-1.53.16-2.64.67-3.35,1.55s-1.07,1.98-1.07,3.3v8.14c0,.75-.23,1.32-.7,1.73-.47.4-1.05.6-1.74.6s-1.27-.2-1.73-.6c-.45-.4-.68-.98-.68-1.73v-15c0-.72.23-1.28.68-1.67.45-.39,1.01-.58,1.69-.58s1.21.19,1.63.56c.41.37.62.91.62,1.61v1.55c.49-1.14,1.22-2.02,2.19-2.64.97-.62,2.05-.97,3.24-1.05l.54-.04c.67-.05,1.2.09,1.59.43h0Z"/>
  </g>
  <g id="Light">
    <g>
      <g class="st8">
        <text class="st1" transform="translate(522.56 268.99)"><tspan x="0" y="0">f1eeeb</tspan></text>
      </g>
      <g class="st3">
        <text class="st1" transform="translate(556.8 268.99)"><tspan x="0" y="0"> </tspan></text>
      </g>
      <g class="st7">
        <text class="st0" transform="translate(559.7 268.99)"><tspan x="0" y="0"> </tspan></text>
      </g>
    </g>
    <path class="st9" d="M1.59,32.25c-.43-.41-.64-.99-.64-1.74V7.9c0-.75.21-1.33.64-1.74s1.01-.62,1.76-.62h7.68c4.47,0,7.94,1.2,10.41,3.59,2.47,2.39,3.7,5.74,3.7,10.06s-1.23,7.71-3.7,10.1c-2.47,2.39-5.94,3.59-10.41,3.59H3.36c-.75,0-1.34-.21-1.76-.62h0ZM10.72,28.8c6.28,0,9.42-3.2,9.42-9.62s-3.14-9.58-9.42-9.58h-4.77v19.19h4.77Z"/>
    <path class="st9" d="M30.07,9.36c-.52-.48-.78-1.1-.78-1.88s.26-1.4.78-1.86c.52-.47,1.21-.7,2.09-.7s1.54.23,2.07.7c.53.47.79,1.09.79,1.86s-.26,1.4-.78,1.88c-.52.48-1.21.72-2.09.72s-1.58-.24-2.09-.72h0ZM30.44,32.5c-.45-.4-.68-.98-.68-1.73v-14.96c0-.75.23-1.32.68-1.71.45-.39,1.03-.58,1.73-.58s1.28.19,1.74.58.7.96.7,1.71v14.96c0,.75-.23,1.32-.7,1.73s-1.05.6-1.74.6-1.27-.2-1.73-.6Z"/>
    <path class="st9" d="M57.4,14.14c.44.41.66.97.66,1.67v15.31c0,2.97-.83,5.22-2.48,6.75-1.65,1.53-4.1,2.29-7.33,2.29-2.82,0-5.17-.53-7.06-1.59-.96-.57-1.43-1.25-1.43-2.05,0-.57.14-1.02.41-1.36.27-.34.63-.5,1.07-.5.23,0,.52.06.85.17.34.12.68.25,1.05.41.93.39,1.76.68,2.5.89.74.21,1.58.31,2.54.31,3.39,0,5.08-1.65,5.08-4.96v-2.48c-.57,1.06-1.4,1.88-2.48,2.46s-2.33.87-3.72.87c-1.65,0-3.12-.39-4.4-1.18-1.28-.79-2.28-1.89-3-3.31-.72-1.42-1.09-3.06-1.09-4.92s.36-3.51,1.07-4.94c.71-1.43,1.71-2.55,3-3.33,1.29-.79,2.77-1.18,4.42-1.18,1.4,0,2.64.29,3.72.87,1.09.58,1.91,1.4,2.48,2.46v-1.01c0-.67.22-1.21.66-1.63.44-.41,1.02-.62,1.74-.62s1.3.21,1.74.62h0ZM51.95,27.05c.87-1.01,1.3-2.39,1.3-4.15s-.43-3.18-1.3-4.19c-.87-1.01-2.07-1.51-3.63-1.51s-2.73.5-3.61,1.51c-.88,1.01-1.32,2.4-1.32,4.19s.44,3.14,1.32,4.15c.88,1.01,2.08,1.51,3.61,1.51s2.76-.5,3.63-1.51Z"/>
    <path class="st6" d="M63.39,9.98c-.52-.48-.78-1.1-.78-1.88s.26-1.4.78-1.86c.52-.47,1.21-.7,2.09-.7s1.54.23,2.07.7c.53.47.79,1.09.79,1.86s-.26,1.4-.78,1.88c-.52.48-1.21.72-2.09.72s-1.58-.24-2.09-.72h0ZM63.92,33.92c-.98-.95-.89-2.1-.95-3.5-.02-.42-.03-.82-.05-1.25-.11-3.63-.43-9.67-.47-12.99.11-1.14,1.01-2.05,2-2.47.82-.33,1.76-.23,2.52.25.68.43,1.33,1.13,1.49,1.95.04.2.05.4.05.62-.1,3-.44,11.07-.56,14.31-.04.84,0,1.61-.41,2.38-.7,1.39-2.51,1.79-3.61.72h0s0,0,0,0Z"/>
    <path class="st9" d="M84.69,31.24c0,.62-.25,1.09-.76,1.42-.5.32-1.22.46-2.15.41l-1.05-.08c-4.34-.31-6.51-2.64-6.51-6.98v-8.45h-1.94c-.7,0-1.23-.16-1.61-.47s-.56-.76-.56-1.36.19-1.05.56-1.36.91-.47,1.61-.47h1.94v-3.57c0-.7.22-1.25.66-1.67s1.03-.62,1.78-.62,1.3.21,1.74.62c.44.41.66.97.66,1.67v3.57h3.3c.7,0,1.23.16,1.61.47.37.31.56.76.56,1.36s-.19,1.05-.56,1.36-.91.47-1.61.47h-3.3v8.8c0,1.91.88,2.93,2.64,3.06l1.05.08c1.29.08,1.94.66,1.94,1.74h0Z"/>
    <path class="st9" d="M103.28,28.18c.27.34.41.79.41,1.36,0,.8-.48,1.47-1.43,2.02-.88.49-1.87.89-2.99,1.18-1.11.3-2.17.45-3.18.45-3.05,0-5.47-.88-7.25-2.64-1.78-1.76-2.68-4.16-2.68-7.21,0-1.94.39-3.66,1.16-5.16.78-1.5,1.87-2.66,3.28-3.49,1.41-.83,3-1.24,4.79-1.24s3.19.37,4.46,1.12c1.27.75,2.25,1.81,2.95,3.18.7,1.37,1.05,2.99,1.05,4.85,0,1.11-.49,1.67-1.47,1.67h-11.44c.16,1.78.66,3.1,1.51,3.94.85.84,2.09,1.26,3.72,1.26.83,0,1.56-.1,2.19-.31.63-.21,1.35-.49,2.15-.85.78-.41,1.34-.62,1.71-.62.44,0,.79.17,1.07.5h0ZM92.35,18.1c-.79.83-1.26,2.02-1.42,3.57h8.76c-.05-1.58-.44-2.77-1.16-3.59-.72-.81-1.73-1.22-3.02-1.22s-2.37.41-3.16,1.24Z"/>
    <path class="st9" d="M119.97,13.95c.39.34.58.84.58,1.51s-.17,1.21-.5,1.55c-.34.34-.94.56-1.82.66l-1.16.12c-1.53.16-2.64.67-3.35,1.55s-1.07,1.98-1.07,3.3v8.14c0,.75-.23,1.32-.7,1.73-.47.4-1.05.6-1.74.6s-1.27-.2-1.73-.6c-.45-.4-.68-.98-.68-1.73v-15c0-.72.23-1.28.68-1.67.45-.39,1.01-.58,1.69-.58s1.21.19,1.63.56c.41.37.62.91.62,1.61v1.55c.49-1.14,1.22-2.02,2.19-2.64.97-.62,2.05-.97,3.24-1.05l.54-.04c.67-.05,1.2.09,1.59.43h0Z"/>
  </g>
</svg>